<?xml version="1.0" encoding="utf-8"?>
<!-- Generator: Adobe Illustrator 15.0.0, SVG Export Plug-In . SVG Version: 6.00 Build 0)  -->
<!DOCTYPE svg PUBLIC "-//W3C//DTD SVG 1.1//EN" "http://www.w3.org/Graphics/SVG/1.1/DTD/svg11.dtd">
<svg version="1.1" xmlns="http://www.w3.org/2000/svg" xmlns:xlink="http://www.w3.org/1999/xlink" x="0px" y="0px" width="800px"
	 height="600px" viewBox="0 0 800 600" enable-background="new 0 0 800 600" xml:space="preserve">
<g id="Layer_2_2_" display="none">
	<rect x="-11.5" y="-7.5" display="inline" fill="#1D1D1B" width="822" height="616"/>
</g>
<g id="Layer_1">
	<g id="Layer_2_1_" display="none">
		<rect y="-5.5" display="inline" stroke="#FFFFFF" stroke-miterlimit="10" width="804.5" height="605.5"/>
	</g>
	<g id="Layer_1_2_">
		<g id="Layer_2" display="none">
			<rect x="-26" y="-10" display="inline" fill="#020000" width="808" height="609"/>
		</g>
		<g id="Layer_1_1_">
			<rect x="267.301" y="209.034" fill="none" width="403.515" height="114.059"/>
			<g opacity="0.4" enable-background="new    ">
				<path fill="#FFFFFF" d="M321.65,223.194c-5.351-8.604-13.954-9.862-22.243-9.968c-8.604,0-22.243,3.147-22.243,14.898
					c0,9.338,10.072,11.542,22.453,13.85c14.164,2.728,28.853,5.246,28.853,21.089c-0.105,16.577-16.787,20.564-29.062,20.564
					c-11.437,0-24.446-4.722-30.112-15.948l5.036-2.518c4.511,8.918,16.052,13.324,25.076,13.324
					c9.023,0,23.397-2.518,23.397-15.527c0.105-11.017-12.066-13.43-24.131-15.738c-13.43-2.623-27.174-5.351-27.174-18.886
					c-0.315-15.527,15.843-20.354,27.909-20.354c10.492,0,19.62,1.679,26.859,12.485L321.65,223.194z"/>
				<path fill="#FFFFFF" d="M361.305,214.171h-26.544v-5.036h58.755v5.036h-26.545v68.303h-5.666V214.171z"/>
				<path fill="#FFFFFF" d="M462.652,282.474l-8.079-18.046h-43.856l-7.974,18.046h-6.085l32.945-73.443h6.19l32.944,73.443H462.652
					z M452.37,259.182l-19.726-44.696l-19.725,44.696H452.37z"/>
				<path fill="#FFFFFF" d="M534.412,272.297c-7.345,7.344-17.102,11.017-26.754,11.017c-24.762,0-37.667-17.312-37.771-37.142
					c-0.21-19.62,12.59-37.981,37.771-37.981c9.652,0,19.409,3.673,26.754,11.017l-3.883,3.357
					c-6.295-6.295-14.583-9.338-22.871-9.338c-21.404,0-32.421,15.108-32.316,32.735c0.211,17.207,11.122,32.105,32.316,32.105
					c8.288,0,16.682-3.148,22.977-9.338L534.412,272.297z"/>
				<path fill="#FFFFFF" d="M599.351,282.474h-7.135l-38.715-36.197v36.093h-5.665V209.03h5.665v33.469l35.673-33.469h6.819v0.524
					l-36.932,34.623l40.289,37.876V282.474z"/>
				<path fill="#FFFFFF" d="M654.43,223.194c-5.352-8.604-13.955-9.862-22.243-9.968c-8.604,0-22.243,3.147-22.243,14.898
					c0,9.338,10.072,11.542,22.453,13.85c14.164,2.728,28.853,5.246,28.853,21.089c-0.104,16.577-16.787,20.564-29.062,20.564
					c-11.437,0-24.446-4.722-30.112-15.948l5.036-2.518c4.512,8.918,16.053,13.324,25.076,13.324s23.396-2.518,23.396-15.527
					c0.105-11.017-12.065-13.43-24.131-15.738c-13.43-2.623-27.174-5.351-27.174-18.886c-0.315-15.527,15.843-20.354,27.908-20.354
					c10.492,0,19.62,1.679,26.859,12.485L654.43,223.194z"/>
			</g>
			<rect x="264.073" y="290.273" fill="none" width="147.415" height="114.059"/>
			<g opacity="0.4" enable-background="new    ">
				<path fill="#FFFFFF" d="M335.74,324.264c-0.097,17.82-11.428,34.962-34.187,34.962s-34.187-17.239-34.187-35.155
					c0-18.208,11.331-34.865,34.187-34.865S335.837,305.96,335.74,324.264z M272.499,324.167
					c0.097,15.302,9.782,30.216,29.054,30.216c19.37,0,29.151-14.914,29.151-30.216c0-15.689-9.685-30.12-29.151-30.12
					S272.402,308.187,272.499,324.167z"/>
				<path fill="#FFFFFF" d="M350.456,290.271l45.615,56.074v-56.074h5.133v67.793h-2.034l-45.712-55.978v55.978h-5.23v-67.793
					H350.456z"/>
			</g>
			<rect x="411.488" y="290.273" fill="none" width="403.514" height="114.059"/>
			<g opacity="0.4" enable-background="new    ">
				<path fill="#FFFFFF" d="M475.895,323.489c0.29,17.142-10.17,34.478-33.897,34.478c-8.329,0-18.304,0-26.633,0v-67.793
					c8.329,0,18.304,0,26.633,0C465.24,290.174,475.604,306.734,475.895,323.489z M428.051,345.667h13.946
					c15.399,0,21.501-11.234,21.21-22.274c-0.291-10.557-6.488-21.113-21.21-21.113h-13.946V345.667z"/>
				<path fill="#FFFFFF" d="M534.869,357.967h-50.748c0-22.565,0-45.228,0-67.793h50.748v12.396h-38.061v15.592h36.705v11.912
					h-36.705v15.303h38.061V357.967z"/>
				<path fill="#FFFFFF" d="M604.499,349.444c-6.974,6.876-15.979,10.072-25.762,10.072c-25.181,0-35.833-17.336-35.931-34.962
					c-0.096-17.724,11.429-35.737,35.931-35.737c9.2,0,17.917,3.486,24.89,10.363l-8.521,8.231
					c-4.455-4.357-10.461-6.392-16.368-6.392c-16.367,0-23.437,12.203-23.34,23.534c0.097,11.234,6.585,22.952,23.34,22.952
					c5.907,0,12.591-2.421,17.046-6.876L604.499,349.444z"/>
				<path fill="#FFFFFF" d="M666.187,290.561l-30.12,32.444l32.639,34.188v0.774h-15.787l-28.376-30.022v30.022h-12.784v-67.793
					h12.784v28.667l25.762-28.667h15.883V290.561z"/>
			</g>
			<path opacity="0.4" fill="#FFFFFF" enable-background="new    " d="M241.842,191.229c0,0-141.162,43.794-125.271,68.519
				c15.891,24.725,164.297,106.941,164.297,106.941s-153.516-99.253-155.354-111.946
				C122.818,236.112,241.842,191.229,241.842,191.229z"/>
			<path opacity="0.4" fill="#FFFFFF" enable-background="new    " d="M288.791,198.82c0,0-146.228,35.353-132.779,61.487
				c13.449,26.134,153.293,122.191,153.293,122.191s-143.3-113.506-143.912-126.316C164.495,237.377,288.791,198.82,288.791,198.82z
				"/>
			<path opacity="0.4" fill="#FFFFFF" enable-background="new    " d="M204.397,182.023c0,0-143.658,50.236-126.451,74.064
				s169.85,97.884,169.85,97.884S89.129,263.18,86.606,250.605C82.905,232.147,204.397,182.023,204.397,182.023z"/>
			
				<rect x="192.801" y="230.951" transform="matrix(0.766 -0.6428 0.6428 0.766 -116.6057 203.5441)" fill="none" width="56.996" height="61.997"/>
			<g opacity="0.4" enable-background="new    ">
				<path fill="#FFFFFF" d="M207.714,259.537l-10.092,8.469l1.399,5.027l-3.942,3.309l-7.539-26.566l3.971-3.332l24.854,12.036
					l-3.97,3.332L207.714,259.537z M192.927,252.163l3.311,11.225l7.169-6.016L192.927,252.163z"/>
			</g>
			
				<rect x="149.795" y="221.925" transform="matrix(0.6428 -0.7661 0.7661 0.6428 -130.0653 226.9411)" fill="none" width="57.004" height="62.006"/>
			<g opacity="0.4" enable-background="new    ">
				<path fill="#FFFFFF" d="M158.508,249.85c0.031-0.077,0.052-0.154,0.085-0.23c0.284-0.641,0.734-1.266,1.288-1.705
					c0.062-0.05,0.297-0.237,0.561-0.447c0.316-0.465,0.726-0.863,1.216-1.177l-10.736-9.009c-2.662,3.171-5.299,6.314-7.938,9.457
					l3.393,2.846l4.883-5.817L158.508,249.85z"/>
				<path fill="#FFFFFF" d="M157.023,261.75c-1.899,0.708-3.913,0.158-6.045-1.632l-3.009,3.584
					c3.917,3.288,8.065,3.661,11.628,1.792C158.561,264.467,157.578,263.146,157.023,261.75z"/>
			</g>
			
				<rect x="108.972" y="217.915" transform="matrix(0.6428 -0.766 0.766 0.6428 -141.5704 194.2117)" fill="none" width="56.996" height="61.995"/>
			<g opacity="0.4" enable-background="new    ">
				<path fill="#FFFFFF" d="M117.951,261.645c0.193,0.25,0.387,0.5,0.58,0.75l0.001-0.001c-0.576-0.737-1.121-1.489-1.667-2.246
					c-0.175-0.243-0.352-0.48-0.502-0.74c-0.176-0.303-0.296-0.582-0.388-0.855l-0.774,0.922l-1.654-1.388
					c-2.096-1.759-0.334-4.697,1.008-6.297c3.402-4.053,5.564-8.535,0.656-12.653c-4.576-3.841-9.665-0.969-12.904,2.892
					c-2.984,3.557-4.459,8.898-0.402,12.35l3.031-3.612c-1.713-1.485-1.035-4.253,0.561-6.155c2.082-2.481,4.672-3.551,6.768-1.793
					c2.232,1.875,0.236,4.757-0.99,6.218c-3.192,3.805-5.246,8.941-0.808,12.667c1.71,1.435,3.392,2.846,5.073,4.257l2.957-3.523
					C118.311,262.174,118.133,261.903,117.951,261.645z"/>
			</g>
		</g>
	</g>
</g>
</svg>
