<?xml version="1.0" encoding="utf-8"?>
<!-- Generator: Adobe Illustrator 15.0.0, SVG Export Plug-In . SVG Version: 6.00 Build 0)  -->
<!DOCTYPE svg PUBLIC "-//W3C//DTD SVG 1.1//EN" "http://www.w3.org/Graphics/SVG/1.1/DTD/svg11.dtd">
<svg version="1.1" xmlns="http://www.w3.org/2000/svg" xmlns:xlink="http://www.w3.org/1999/xlink" x="0px" y="0px" width="800px"
	 height="600px" viewBox="0 0 800 600" enable-background="new 0 0 800 600" xml:space="preserve">
<g id="Layer_2_1_" display="none">
	<rect y="-5.5" display="inline" stroke="#FFFFFF" stroke-miterlimit="10" width="804.5" height="605.5"/>
</g>
<g id="Layer_1">
	<g id="Layer_2" display="none">
		<rect x="-26" y="-10" display="inline" fill="#020000" width="808" height="609"/>
	</g>
	<g id="Layer_1_1_">
		<rect x="267.301" y="209.034" fill="none" width="403.514" height="114.059"/>
		
			<text transform="matrix(1 0 0 1 267.3018 282.4736)" opacity="0.4" fill="#FFFFFF" enable-background="new    " font-family="'NexaLight'" font-size="104.913">STACKS</text>
		<rect x="264.073" y="290.273" fill="none" width="147.415" height="114.059"/>
		
			<text transform="matrix(1 0 0 1 264.0732 358.0635)" opacity="0.4" fill="#FFFFFF" enable-background="new    " font-family="'NexaLight'" font-size="96.8428">ON</text>
		<rect x="411.488" y="290.273" fill="none" width="403.514" height="114.059"/>
		
			<text transform="matrix(1 0 0 1 411.4902 357.9668)" opacity="0.4" fill="#FFFFFF" enable-background="new    " font-family="'NexaBold'" font-size="96.8428">DECK</text>
		<path opacity="0.4" fill="#FFFFFF" enable-background="new    " d="M241.842,191.229c0,0-141.162,43.794-125.271,68.519
			c15.891,24.725,164.297,106.941,164.297,106.941s-153.516-99.253-155.354-111.946
			C122.818,236.112,241.842,191.229,241.842,191.229z"/>
		<path opacity="0.4" fill="#FFFFFF" enable-background="new    " d="M288.791,198.82c0,0-146.228,35.353-132.779,61.487
			c13.449,26.134,153.294,122.191,153.294,122.191S166.006,268.992,165.394,256.182C164.495,237.377,288.791,198.82,288.791,198.82z
			"/>
		<path opacity="0.4" fill="#FFFFFF" enable-background="new    " d="M204.397,182.023c0,0-143.658,50.236-126.451,74.064
			s169.85,97.884,169.85,97.884S89.129,263.18,86.606,250.605C82.905,232.147,204.397,182.023,204.397,182.023z"/>
		
			<rect x="192.79" y="230.95" transform="matrix(-0.766 0.6428 -0.6428 -0.766 559.1877 320.3582)" fill="none" width="56.998" height="61.999"/>
		
			<text transform="matrix(0.766 -0.6428 0.6428 0.766 195.7129 275.8096)" opacity="0.4" fill="#FFFFFF" enable-background="new    " font-family="'NexaBold'" font-size="36">A</text>
		
			<rect x="149.811" y="221.929" transform="matrix(-0.6428 0.7661 -0.7661 -0.6428 486.6865 278.9076)" fill="none" width="57.002" height="62.003"/>
		<g opacity="0.4" enable-background="new    ">
			<path fill="#FFFFFF" d="M158.508,249.85c0.031-0.077,0.052-0.154,0.085-0.23c0.284-0.641,0.734-1.266,1.288-1.705
				c0.062-0.05,0.297-0.237,0.561-0.447c0.316-0.465,0.726-0.863,1.216-1.177l-10.736-9.009c-2.662,3.171-5.299,6.314-7.938,9.457
				l3.393,2.846l4.883-5.817L158.508,249.85z"/>
			<path fill="#FFFFFF" d="M157.023,261.75c-1.899,0.708-3.913,0.158-6.045-1.632l-3.009,3.584
				c3.917,3.288,8.065,3.661,11.628,1.792C158.561,264.467,157.578,263.146,157.023,261.75z"/>
		</g>
		
			<rect x="108.964" y="217.911" transform="matrix(-0.6428 0.766 -0.766 -0.6428 416.4957 303.6154)" fill="none" width="56.998" height="61.997"/>
		<g opacity="0.4" enable-background="new    ">
			<path fill="#FFFFFF" d="M117.951,261.645c0.193,0.25,0.387,0.5,0.58,0.75l0.001-0.001c-0.576-0.737-1.121-1.489-1.667-2.246
				c-0.175-0.243-0.352-0.48-0.502-0.74c-0.176-0.303-0.296-0.582-0.388-0.855l-0.774,0.922l-1.654-1.388
				c-2.096-1.759-0.334-4.697,1.008-6.297c3.402-4.053,5.564-8.535,0.656-12.653c-4.576-3.841-9.665-0.969-12.904,2.892
				c-2.984,3.557-4.459,8.898-0.402,12.35l3.031-3.612c-1.713-1.485-1.035-4.253,0.561-6.155c2.082-2.481,4.672-3.551,6.768-1.793
				c2.232,1.875,0.236,4.757-0.99,6.218c-3.192,3.805-5.246,8.941-0.808,12.667c1.71,1.435,3.392,2.846,5.073,4.257l2.957-3.523
				C118.311,262.174,118.133,261.903,117.951,261.645z"/>
		</g>
	</g>
</g>
</svg>
